<svg xmlns="http://www.w3.org/2000/svg" width="263.345" height="35.056" fill="none" viewBox="0 0 263.345 35.056">
  <path fill="#a6a6a6" d="M95.62 10.474C95.62 4.703 90.916 0 85.144 0H67.69v34.2h7.766V20.949h6.2L89.206 34.2h8.621l-8.194-14.322c3.705-1.71 5.985-5.415 5.985-9.405m-12.042 3.848h-8.194V6.626h8.336c2.565.143 4.204 1.64 4.204 3.848-.071 2.209-1.781 3.776-4.346 3.848M54.008.072h7.98v20.59c0 8.979-5.557 14.394-14.89 14.394-9.335 0-14.892-5.344-14.892-14.393V.07h7.98v20.093c0 4.845 2.565 7.624 6.911 7.624 4.418 0 6.983-2.779 6.983-7.624V.071zM142.29 27.36h18.454v6.84H134.38V0h25.508v6.555H142.36v6.84h15.391v6.698H142.36v7.267zM21.66 15.248c2.423-1.496 3.92-4.133 3.92-6.983 0-4.489-3.635-8.194-8.195-8.265H0v34.2h18.882c5.343 0 9.618-4.346 9.618-9.69 0-3.776-2.208-7.695-6.84-9.262M7.838 6.413h6.412c1.924 0 3.563 1.638 3.563 3.562a3.53 3.53 0 0 1-3.563 3.563H7.838zm8.764 21.375H7.838v-7.98h8.692c2.85 0 4.204 2.28 4.204 3.919 0 2.066-1.425 4.061-4.132 4.061m177.344-17.314C193.946 4.703 189.244 0 183.472 0h-17.456v34.2h7.766V20.949h6.199l7.553 13.253h8.621l-8.194-14.322c3.634-1.71 5.985-5.415 5.985-9.405m-12.113 3.848h-8.193V6.626h8.336c2.565.143 4.204 1.64 4.204 3.848s-1.782 3.776-4.347 3.848m-58.639.926c2.422-1.496 3.918-4.133 3.918-6.983 0-4.489-3.633-8.194-8.193-8.265h-17.386v34.2h18.882c5.344 0 9.619-4.346 9.619-9.69 0-3.776-2.28-7.695-6.84-9.262m-13.823-8.835h6.412c1.924 0 3.563 1.638 3.563 3.562a3.53 3.53 0 0 1-3.563 3.563h-6.412zm8.692 21.375h-8.692v-7.98h8.692c2.851 0 4.204 2.28 4.204 3.919 0 2.066-1.425 4.061-4.204 4.061M263.345 0l-13.609 20.235V34.13h-8.408V20.235L227.791 0h9.975l7.837 11.757L253.441 0zm-35.626 10.474C227.719 4.703 223.017 0 217.245 0h-17.456v34.2h7.766V20.949h6.199l7.553 13.253h8.692l-8.194-14.322c3.634-1.71 5.914-5.415 5.914-9.405m-12.112 3.848h-8.194V6.626h8.336c2.565.143 4.204 1.64 4.204 3.848s-1.71 3.776-4.346 3.848"/>
</svg>
