<svg xmlns="http://www.w3.org/2000/svg" width="144.299" height="32.341" fill="none" viewBox="0 0 144.299 32.341">
  <path fill="#a6a6a6" fill-rule="evenodd" d="M61.78 0C52.863 0 45.633 7.23 45.633 16.15c0 8.918 7.23 16.148 16.149 16.148 8.918 0 16.148-7.23 16.148-16.148C77.972 7.23 70.742 0 61.781 0m0 26.41c-5.671 0-10.26-4.59-10.26-10.261 0-5.672 4.589-10.261 10.26-10.261 5.672 0 10.261 4.59 10.261 10.26 0 5.672-4.589 10.261-10.26 10.261m41.26-20.522h-5.455v23.379a2.92 2.92 0 0 1-2.944 2.944 2.92 2.92 0 0 1-2.944-2.944V5.888h-4.243v23.379a2.92 2.92 0 0 1-2.944 2.944 2.92 2.92 0 0 1-2.944-2.944V5.888h-4.892a2.92 2.92 0 0 1-2.944-2.944A2.92 2.92 0 0 1 76.674 0h26.322a2.92 2.92 0 0 1 2.944 2.944c.044 1.602-1.298 2.944-2.9 2.944m41.259-2.944v26.323a2.92 2.92 0 0 1-2.944 2.944 2.92 2.92 0 0 1-2.944-2.944V12.166v.216l-12.642 18.14c-.909 1.342-2.641 1.775-3.593 1.819-8.14 0-14.85-6.018-15.976-13.811v10.737a2.92 2.92 0 0 1-2.944 2.944 2.92 2.92 0 0 1-2.944-2.944V11.213a2.92 2.92 0 0 1 2.944-2.944 2.92 2.92 0 0 1 2.944 2.944v2.598A16.11 16.11 0 0 1 122.176 0c2.857 0 5.585.778 7.922 2.077.78.52 1.343 1.429 1.343 2.468a2.92 2.92 0 0 1-2.944 2.944c-.563 0-1.039-.13-1.472-.39q-2.144-1.169-4.806-1.169a10.255 10.255 0 0 0-10.261 10.261c0 5.369 4.156 9.785 9.438 10.217l17.275-24.59c.476-1.04 1.472-1.776 2.684-1.776C143 0 144.299 1.3 144.299 2.944M48.662 27.405c1.04 1.256.823 3.117-.432 4.156-1.256 1.04-3.118.823-4.157-.433l-8.485-10.52-8.486 10.52c-1.039 1.256-2.857 1.472-4.156.433-1.256-1.039-1.472-2.857-.433-4.156l9.308-11.473-3.767-4.632v2.684a10.07 10.07 0 0 1-10.087 10.088A10.07 10.07 0 0 1 7.88 13.984V2.944A2.92 2.92 0 0 1 10.823 0a2.92 2.92 0 0 1 2.944 2.944v11.04c0 2.338 1.862 4.2 4.2 4.2s4.2-1.905 4.2-4.2V2.944A2.92 2.92 0 0 1 25.11 0c1.04 0 1.949.563 2.468 1.385l8.01 9.872L43.77 1.169c1.04-1.256 2.858-1.472 4.156-.433 1.256 1.04 1.472 2.857.433 4.156l-8.961 11.084zM20.911 29.18a2.92 2.92 0 0 1-2.944 2.944H3.593c-.216.043-.433.087-.649.087A2.92 2.92 0 0 1 0 29.267V2.944A2.92 2.92 0 0 1 2.944 0a2.92 2.92 0 0 1 2.944 2.944v23.292h12.079a2.92 2.92 0 0 1 2.944 2.944"/>
</svg>
