<svg xmlns="http://www.w3.org/2000/svg" width="1408.695" height="611" fill="none" viewBox="0 0 1408.7 611">
  <path fill="#ffa638" fill-rule="evenodd" d="M1245.02 569.578c-15.61 18.089-47.28 15.376-52.49-11.076-2.48-13.118 1.14-28.943 6.79-40.023 12.67-24.193 35.52-44.089 61.54-50.646 0 14.924 0 34.594-.45 49.743-.46 16.732-4.08 38.661-15.39 52.002M993.234 212.116c14.476.903 26.016 16.728 22.176 43.635-4.75 31.883-31.224 66.021-61.31 73.708-4.755-11.304-7.014-34.367-4.302-56.976 4.979-41.378 26.244-61.274 43.436-60.367M429.262 366.314c-22.397-29.846-21.494-66.021-14.477-100.388 21.941 49.289 80.536 57.883 116.73 50.646-4.749 37.986-24.664 71.222-59.044 71.222-19.229.225-33.259-8.14-43.209-21.48m79.178-139.28c11.038 11.264 18.485 27.682 21.893 45.905.021-.002.051.222.051.222-.013-.075-.034-.147-.051-.222-25.319 3.607-49.732-1.141-67.59-14.929-12.892-10.173-16.289-26.225-10.859-35.948 7.915-14.017 31.673-20.123 56.556 4.972m-344.763-185.4c15.606-18.311 47.278-15.376 52.256 11.08 2.486 12.886-.907 28.713-6.559 39.791-12.674 24.192-35.522 44.088-61.539 50.872 0-15.145-.227-34.592.459-49.74.448-16.731 4.07-38.89 15.383-52.003M1318.55 433.692c.22-78.682 0-157.365 0-236.049 0-19.443-55.88-20.577-57.69-.903 0 7.912 0 16.052-.23 23.965-.9 43.186-21.49 123.903-55.65 153.296-9.27 7.916-17.65 8.367-23.52 4.069-5.21-3.844-6.57-13.563-6.57-21.93v-10.852c0-48.611.23-98.807 0-147.42 0-19.445-55.88-20.802-57.69-1.128 0 45.218 0 89.084.23 133.851-36.87 58.786-122.159 86.371-157.45 16.73 21.945 8.367 45.24 4.296 61.08-4.069 27.38-14.471 48.19-38.436 52.26-76.421 3.84-111.244-143.198-126.389-176.005-13.113-5.427 18.765-8.367 38.888-7.687 58.558.674 18.766 4.521 36.175 11.082 51.552-11.993 11.756-25.79 19.895-39.587 19.445-18.103-.68-16.287-23.062-16.287-35.952v-84.788c0-10.173 0-20.348-.909-30.294-2.937-29.62-25.563-53.136-57.232-55.173-45.023-.676-76.692 41.153-92.301 87.052-.223-25.549 0-40.7 0-66.475-.223-19.22-52.029-20.577-57.911-.227-7.466 25.777-31.9 45.899-54.75 57.881-7.009-16.956-15.83-32.555-28.047-45.894-50.226-54.494-122.839-44.542-165.374.449-33.707 35.726-43.882 100.164-25.787 145.381-13.346 15.831-31.668 28.717-47.957 28.04-8.148-.453-12.671-5.203-14.708-12.663-2.038-7.237-1.581-15.825-1.581-23.289 0-28.263-.229-56.525 0-84.788 0-10.173 0-20.348-.903-30.294-2.945-29.62-20.364-53.363-53.39-55.395-56.785-2.491-79.633 52.455-96.378 97.673v-96.544c11.993-2.036 23.533-4.976 35.066-8.365C307.778 133.656 283.571 2.291 190.37.032 127.479-1.323 90.15 40.051 90.606 102.906v40.698c-22.625-3.389-39.593-32.782-49.09-51.775q-2.043-4.41-4.073-8.82c-1.13-2.94-4.298-4.519-7.244-3.615-2.484.675-4.972 1.582-7.464 2.486-9.045 4.07-16.516 11.08-20.13 20.35-6.56 16.504 0 34.141 11.532 46.575 19.008 19.898 49.323 27.132 76.012 28.488-.227 78.458 0 156.689 0 235.145.905 11.08 16.066 14.021 24.887 14.244 9.278.227 29.408-2.713 29.637-15.372l.678-9.725c3.846-34.817 37.323-174.096 79.627-174.324 10.41 0 15.615 6.784 15.615 16.959v124.131c0 38.436 21.715 64.21 61.079 64.21 30.54.227 58.135-21.933 74.651-49.514 2.26 2.939 4.072 6.103 6.56 8.816 21.49 25.099 53.163 41.153 89.361 41.378 78.947-1.132 119.441-68.961 116.506-135.661 18.323-10.173 34.839-23.291 47.502-39.57v154.428c.907 11.08 16.745 14.021 25.57 14.244 9.27.227 29.408-2.713 29.408-15.372l.903-9.725 2.712-25.774c4.076-35.95 30.996-148.322 76.919-148.55 10.175 0 15.386 6.784 15.386 16.959v124.131c0 38.436 21.717 64.21 61.3 64.21 27.377.227 52.26-17.635 69.001-41.149 22.168 27.358 56.107 43.41 96.819 43.41 47.74 0 82.35-21.026 105.42-54.942 5.21 29.169 20.82 52.229 59.05 52.681 39.58.227 69.68-54.94 82.12-88.18v88.86c-11.77 2.033-23.3 4.974-34.84 8.363-125.1 35.726-101.12 167.315-7.92 169.352 63.12 1.583 100.22-39.795 99.99-102.65 0-10.626-.22-30.523 0-40.925 22.4 3.393 39.59 33.013 48.87 52.005a77 77 0 0 1 4.07 8.816c1.36 2.94 4.29 4.296 7.46 3.616 2.49-.676 4.98-1.579 7.24-2.713 9.28-4.067 16.75-10.849 20.36-20.346 6.57-16.505 0-33.915-11.76-46.352-18.77-20.121-49.32-27.133-75.78-28.715" opacity=".45"/>
</svg>
