<svg xmlns="http://www.w3.org/2000/svg">
<symbol id="icon-logo" fill="none" viewBox="0 0 92.222 40">
  <path fill="currentColor" fill-rule="evenodd" d="M81.507 37.288c-1.022 1.185-3.095 1.007-3.436-.725-.163-.859.074-1.895.444-2.62.83-1.584 2.326-2.886 4.029-3.316 0 .977 0 2.265-.03 3.257-.03 1.095-.266 2.53-1.007 3.404M65.023 13.887c.949.059 1.704 1.095 1.452 2.856-.311 2.087-2.044 4.322-4.013 4.826-.312-.74-.46-2.25-.282-3.73.326-2.71 1.718-4.012 2.843-3.952M28.103 23.98c-1.467-1.954-1.408-4.322-.949-6.572 1.437 3.227 5.273 3.79 7.642 3.316-.31 2.487-1.614 4.662-3.865 4.662-1.259.015-2.177-.532-2.829-1.406m5.183-9.118c.722.738 1.21 1.812 1.433 3.005l.003.015-.003-.015c-1.657.237-3.256-.074-4.425-.977-.844-.666-1.066-1.717-.71-2.353.517-.918 2.073-1.318 3.702.325M10.716 2.726c1.021-1.2 3.095-1.007 3.42.725.163.844-.059 1.88-.429 2.605-.83 1.584-2.325 2.886-4.029 3.33 0-.991-.015-2.264.03-3.256.03-1.095.267-2.546 1.007-3.404M86.32 28.392c.014-5.15 0-10.302 0-15.453 0-1.273-3.659-1.347-3.777-.06 0 .519 0 1.052-.015 1.57-.059 2.827-1.407 8.111-3.643 10.036-.607.518-1.155.547-1.54.266-.341-.252-.43-.888-.43-1.436v-.71c0-3.183.015-6.469 0-9.651 0-1.273-3.658-1.362-3.777-.074 0 2.96 0 5.832.015 8.763-2.414 3.848-7.997 5.654-10.307 1.095 1.436.548 2.961.281 3.998-.267 1.792-.947 3.155-2.516 3.421-5.003.252-7.282-9.374-8.274-11.522-.858-.355 1.229-.548 2.546-.503 3.834.044 1.228.296 2.368.725 3.375-.785.77-1.688 1.302-2.591 1.273-1.185-.045-1.067-1.51-1.067-2.354v-5.55c0-.667 0-1.333-.06-1.984-.191-1.94-1.673-3.479-3.746-3.612-2.947-.044-5.02 2.694-6.043 5.699-.014-1.673 0-2.665 0-4.352-.014-1.258-3.406-1.347-3.79-.015-.49 1.688-2.09 3.005-3.585 3.79-.459-1.11-1.036-2.132-1.836-3.005-3.288-3.568-8.042-2.916-10.827.03-2.206 2.338-2.872 6.557-1.688 9.517-.873 1.036-2.073 1.88-3.14 1.835-.533-.03-.829-.34-.962-.829-.134-.473-.104-1.035-.104-1.524 0-1.85-.015-3.7 0-5.55 0-.667 0-1.333-.059-1.984-.193-1.94-1.333-3.494-3.495-3.627-3.718-.163-5.213 3.434-6.31 6.395v-6.32c.785-.134 1.541-.326 2.296-.548C20.149 8.75 18.564.15 12.463.002c-4.117-.089-6.561 2.62-6.531 6.735V9.4C4.45 9.18 3.34 7.255 2.718 6.011q-.134-.288-.267-.577a.39.39 0 0 0-.474-.236c-.163.044-.326.103-.489.162-.592.267-1.08.726-1.317 1.333-.43 1.08 0 2.235.755 3.049 1.244 1.302 3.228 1.776 4.976 1.865-.015 5.136 0 10.258 0 15.394.059.725 1.051.918 1.629.932.607.015 1.925-.177 1.94-1.006l.045-.637c.251-2.279 2.443-11.397 5.213-11.412.681 0 1.022.444 1.022 1.11v8.127c0 2.516 1.421 4.203 3.998 4.203 2 .015 3.806-1.436 4.888-3.241.148.192.266.4.429.577a7.71 7.71 0 0 0 5.85 2.709c5.168-.074 7.82-4.515 7.627-8.881 1.2-.666 2.281-1.525 3.11-2.591v10.11c.06.725 1.096.918 1.674.932.607.015 1.925-.177 1.925-1.006l.06-.637.177-1.687c.267-2.354 2.03-9.71 5.036-9.725.666 0 1.007.444 1.007 1.11v8.127c0 2.516 1.422 4.203 4.013 4.203 1.792.015 3.421-1.154 4.517-2.694 1.452 1.791 3.673 2.842 6.339 2.842 3.125 0 5.39-1.376 6.901-3.597.341 1.91 1.363 3.42 3.866 3.45 2.591.014 4.561-3.597 5.376-5.774v5.818c-.77.133-1.525.325-2.28.547-8.19 2.34-6.621 10.954-.52 11.087 4.133.104 6.561-2.605 6.547-6.72 0-.696-.015-1.998 0-2.68 1.466.223 2.591 2.162 3.199 3.405q.154.289.267.578a.42.42 0 0 0 .488.236c.163-.044.326-.103.474-.177.607-.267 1.096-.71 1.333-1.332.43-1.08 0-2.22-.77-3.035-1.23-1.317-3.229-1.776-4.962-1.88"/>
</symbol>
<symbol id="burberry" fill="none" viewBox="0 0 263.345 35.056">
  <path fill="currentColor" d="M95.62 10.474C95.62 4.703 90.916 0 85.144 0H67.69v34.2h7.766V20.949h6.2L89.206 34.2h8.621l-8.194-14.322c3.705-1.71 5.985-5.415 5.985-9.405m-12.042 3.848h-8.194V6.626h8.336c2.565.143 4.204 1.64 4.204 3.848-.071 2.209-1.781 3.776-4.346 3.848M54.008.072h7.98v20.59c0 8.979-5.557 14.394-14.89 14.394-9.335 0-14.892-5.344-14.892-14.393V.07h7.98v20.093c0 4.845 2.565 7.624 6.911 7.624 4.418 0 6.983-2.779 6.983-7.624V.071zM142.29 27.36h18.454v6.84H134.38V0h25.508v6.555H142.36v6.84h15.391v6.698H142.36v7.267zM21.66 15.248c2.423-1.496 3.92-4.133 3.92-6.983 0-4.489-3.635-8.194-8.195-8.265H0v34.2h18.882c5.343 0 9.618-4.346 9.618-9.69 0-3.776-2.208-7.695-6.84-9.262M7.838 6.413h6.412c1.924 0 3.563 1.638 3.563 3.562a3.53 3.53 0 0 1-3.563 3.563H7.838zm8.764 21.375H7.838v-7.98h8.692c2.85 0 4.204 2.28 4.204 3.919 0 2.066-1.425 4.061-4.132 4.061m177.344-17.314C193.946 4.703 189.244 0 183.472 0h-17.456v34.2h7.766V20.949h6.199l7.553 13.253h8.621l-8.194-14.322c3.634-1.71 5.985-5.415 5.985-9.405m-12.113 3.848h-8.193V6.626h8.336c2.565.143 4.204 1.64 4.204 3.848s-1.782 3.776-4.347 3.848m-58.639.926c2.422-1.496 3.918-4.133 3.918-6.983 0-4.489-3.633-8.194-8.193-8.265h-17.386v34.2h18.882c5.344 0 9.619-4.346 9.619-9.69 0-3.776-2.28-7.695-6.84-9.262m-13.823-8.835h6.412c1.924 0 3.563 1.638 3.563 3.562a3.53 3.53 0 0 1-3.563 3.563h-6.412zm8.692 21.375h-8.692v-7.98h8.692c2.851 0 4.204 2.28 4.204 3.919 0 2.066-1.425 4.061-4.204 4.061M263.345 0l-13.609 20.235V34.13h-8.408V20.235L227.791 0h9.975l7.837 11.757L253.441 0zm-35.626 10.474C227.719 4.703 223.017 0 217.245 0h-17.456v34.2h7.766V20.949h6.199l7.553 13.253h8.692l-8.194-14.322c3.634-1.71 5.914-5.415 5.914-9.405m-12.112 3.848h-8.194V6.626h8.336c2.565.143 4.204 1.64 4.204 3.848s-1.71 3.776-4.346 3.848"/>
</symbol>
<symbol id="dunkin" fill="none" viewBox="0 0 204.738 36.961">
    <path d="M103.971 5.16c.118.647.118 1.293.118 1.94v23.876c0 2.47-.882 4.41-3.176 5.41-2.47 1.059-4.822.647-6.822-1.176-1.234-1.117-2.175-2.529-3.234-3.881-2.764-3.529-5.763-6.94-8.115-10.82.058-.06 0-.06-.06-.118-.117.176-.058.411-.058.588v9.233c0 .882-.118 1.705-.353 2.528-.764 2.647-2.999 4.234-5.763 4.058-3.41-.235-5.351-2.294-5.587-5.88-.058-.354-.058-.706-.058-1.06V6.043c0-2.47.94-4.41 3.293-5.41 2.41-1 4.704-.647 6.704 1.176 1.058.94 1.823 2.234 2.705 3.41 2.646 3.588 5.469 7.116 7.939 10.88.235.412.47.764.882 1.117V6.747c0-1.352.235-2.705.94-3.88C94.622.69 96.62-.016 98.973.22c2.764.235 4.646 2.117 4.999 4.94M189.829 4.1c-.588-2-1.881-3.41-3.998-3.822-2.235-.412-4.293-.118-5.881 1.764-1.059 1.294-1.412 2.823-1.412 4.41v10.939a31 31 0 0 0-1.058-1.706c-3.058-4.47-6.351-8.703-9.586-13.055-.411-.53-.941-1-1.529-1.411-2.058-1.353-4.175-1.47-6.351-.47-1.94.94-2.94 2.587-2.94 4.704-.059 8.35 0 16.76 0 25.11 0 .177.059.412.059.588.235 3.352 2.234 5.47 5.528 5.705 2.293.176 4.41-1 5.41-3 .411-.882.705-1.764.705-2.704 0-3.411.059-6.704.059-10.056v-.647c.353.588.647 1.117 1.059 1.646 2.999 4.293 6.41 8.233 9.585 12.35.236.294.588.647.883.882 1.999 1.646 4.292 1.94 6.645.94 2.293-.999 3.175-2.94 3.175-5.35V6.982c0-.941-.058-1.94-.353-2.882M31.815 11.922c2.352 6.528 1.588 12.762-3.058 18.23-2.823 3.353-6.646 5.117-10.938 5.705-3.94.588-7.94.176-11.938.235a2 2 0 0 1-.588-.117C2.176 35.445 0 32.858 0 29.74V7.218C0 3.69 2.705.867 6.292.808h4.999c2.058.059 4.41-.176 6.763.294 6.469 1.235 11.467 4.47 13.76 10.82M21.288 18.51c.059-3.293-2.117-5.88-5.41-6.292-1.235-.177-2.411-.06-3.646-.118-.47-.059-.588.118-.588.588.059 1.94.059 3.881.059 5.822v5.822c0 .294-.06.53.411.53 1.235-.06 2.47.058 3.705-.119 3.234-.411 5.41-2.822 5.47-6.233m108.147.235c-.295-.353-.295-.53 0-.882 2.058-2.352 4.116-4.704 6.115-7.116 1-1.235 1.647-2.587 1.765-4.175.235-3.47-3.058-6.645-6.528-6.292-1.999.176-3.411 1.293-4.587 2.822-2.058 2.706-4.234 5.293-6.351 7.998 0-1.764.059-3.528.059-5.234-.118-3.41-2.529-5.704-5.822-5.763-3.352 0-5.822 2.353-5.881 5.763q-.088 12.615 0 25.229c0 3.352 2.47 5.763 5.822 5.763 3.293.059 5.704-2.352 5.822-5.763.118-1.706.059-3.352.059-5.058 0-.176-.118-.353.117-.47.118.176.177.294.294.412 2.235 2.881 4.587 5.645 6.881 8.468.823 1 1.764 1.705 2.999 2.058 3.528 1.059 7.41-1.94 7.527-5.763.059-1.823-.588-3.293-1.764-4.646-2.176-2.411-4.352-4.94-6.527-7.35m-62.512-3.646c0-3.352 0-6.116-.06-8.939 0-.529 0-1-.117-1.47C66.1 1.69 63.453-.19 60.395.102c-3.117.353-5.234 2.705-5.234 5.881v14.525c0 .353 0 .706-.059 1.059-.294 2.764-2.94 4.47-5.351 3.234-1.53-.764-2.117-2.117-2.117-3.763V6.159c0-3.587-2.411-6.057-5.822-6.115-3.41 0-5.822 2.47-5.88 5.998-.06 5.234 0 10.467 0 15.76.058.765.058 1.47.176 2.176.823 5.528 3.704 9.527 8.938 11.644 2.94 1.235 5.999 1.411 9.115 1 7.057-.883 12.291-6.47 12.703-13.526.176-2.823 0-5.704.058-7.998m84.27-13.526c-1.94-1.705-4.175-1.999-6.527-1-2.235 1-3.235 2.882-3.294 5.293-.058 4.176 0 8.351 0 12.526 0 4.293 0 8.469-.058 12.703 0 3.293 2.411 5.586 5.763 5.704 3.175.118 5.822-2.294 5.88-5.528q.089-12.88 0-25.757c0-1.53-.588-2.94-1.764-3.94M193.828 8.57c-.058-1.41 0-2.822.294-4.234.647-2.94 3.117-4.587 6.116-4.116 2.882.47 4.764 2.823 4.47 5.763-.235 2.411-.941 4.763-1.882 6.998-.588 1.294-1.411 2.352-2.823 2.823-2.293.764-4.704-.353-5.528-2.647-.588-1.47-.647-3.058-.647-4.587" fill="currentColor"/>
</symbol>
<symbol id="luxopica" fill="none" viewBox="0 0 144.299 32.341">
  <path fill="currentColor" fill-rule="evenodd" d="M61.78 0C52.863 0 45.633 7.23 45.633 16.15c0 8.918 7.23 16.148 16.149 16.148 8.918 0 16.148-7.23 16.148-16.148C77.972 7.23 70.742 0 61.781 0m0 26.41c-5.671 0-10.26-4.59-10.26-10.261 0-5.672 4.589-10.261 10.26-10.261 5.672 0 10.261 4.59 10.261 10.26 0 5.672-4.589 10.261-10.26 10.261m41.26-20.522h-5.455v23.379a2.92 2.92 0 0 1-2.944 2.944 2.92 2.92 0 0 1-2.944-2.944V5.888h-4.243v23.379a2.92 2.92 0 0 1-2.944 2.944 2.92 2.92 0 0 1-2.944-2.944V5.888h-4.892a2.92 2.92 0 0 1-2.944-2.944A2.92 2.92 0 0 1 76.674 0h26.322a2.92 2.92 0 0 1 2.944 2.944c.044 1.602-1.298 2.944-2.9 2.944m41.259-2.944v26.323a2.92 2.92 0 0 1-2.944 2.944 2.92 2.92 0 0 1-2.944-2.944V12.166v.216l-12.642 18.14c-.909 1.342-2.641 1.775-3.593 1.819-8.14 0-14.85-6.018-15.976-13.811v10.737a2.92 2.92 0 0 1-2.944 2.944 2.92 2.92 0 0 1-2.944-2.944V11.213a2.92 2.92 0 0 1 2.944-2.944 2.92 2.92 0 0 1 2.944 2.944v2.598A16.11 16.11 0 0 1 122.176 0c2.857 0 5.585.778 7.922 2.077.78.52 1.343 1.429 1.343 2.468a2.92 2.92 0 0 1-2.944 2.944c-.563 0-1.039-.13-1.472-.39q-2.144-1.169-4.806-1.169a10.255 10.255 0 0 0-10.261 10.261c0 5.369 4.156 9.785 9.438 10.217l17.275-24.59c.476-1.04 1.472-1.776 2.684-1.776C143 0 144.299 1.3 144.299 2.944M48.662 27.405c1.04 1.256.823 3.117-.432 4.156-1.256 1.04-3.118.823-4.157-.433l-8.485-10.52-8.486 10.52c-1.039 1.256-2.857 1.472-4.156.433-1.256-1.039-1.472-2.857-.433-4.156l9.308-11.473-3.767-4.632v2.684a10.07 10.07 0 0 1-10.087 10.088A10.07 10.07 0 0 1 7.88 13.984V2.944A2.92 2.92 0 0 1 10.823 0a2.92 2.92 0 0 1 2.944 2.944v11.04c0 2.338 1.862 4.2 4.2 4.2s4.2-1.905 4.2-4.2V2.944A2.92 2.92 0 0 1 25.11 0c1.04 0 1.949.563 2.468 1.385l8.01 9.872L43.77 1.169c1.04-1.256 2.858-1.472 4.156-.433 1.256 1.04 1.472 2.857.433 4.156l-8.961 11.084zM20.911 29.18a2.92 2.92 0 0 1-2.944 2.944H3.593c-.216.043-.433.087-.649.087A2.92 2.92 0 0 1 0 29.267V2.944A2.92 2.92 0 0 1 2.944 0a2.92 2.92 0 0 1 2.944 2.944v23.292h12.079a2.92 2.92 0 0 1 2.944 2.944"/>
</symbol>
<symbol id="miu-logo" fill="none" viewBox="0 0 228.232 37.88">
  <path fill="currentColor" d="M50.591 14.745v19.449c0 1.461-1.334 2.542-2.606 2.542h-6.737c-1.334 0-2.415-1.08-2.415-2.542V14.936c-.572-3.432-2.606-4.195-5.02-4.004-.764-2.161-1.526-4.004-2.797-5.784-2.606-2.542-2.225-1.652-2.987-2.542.19 0 1.525-1.08 3.368-1.653 1.462-.381 4.258-.572 6.165-.381 5.021.7 6.737 1.97 8.199 3.114l1.525 1.462c3.496 3.75 3.305 8.135 3.305 9.597M65.146 1.462h-6.547c-1.525 0-2.605 1.08-2.605 2.542V34.13c0 1.462 1.144 2.542 2.605 2.542h6.547c1.525 0 2.605-1.08 2.605-2.542V4.004c0-1.462-1.144-2.542-2.605-2.542m37.244 0h-6.737c-1.525 0-2.606 1.08-2.606 2.542v20.72c0 2.351-2.606 2.732-2.606 2.732v10.17h3.56c1.461-.191 3.75-.572 5.593-1.844 1.461-1.08 2.987-2.732 4.131-4.576.762-1.27.953-2.351 1.144-3.813V3.941c-.064-1.399-1.144-2.48-2.479-2.48M85.103 25.105V22.18l-.191-17.796c0-1.461-1.144-2.542-2.415-2.542H75.76c-1.462 0-2.606 1.08-2.606 2.542v23.453c.19 1.462.381 2.542 1.271 3.813 1.144 1.653 2.415 3.432 4.131 4.386 1.843 1.27 3.94 1.843 5.403 1.843h3.559V27.71c0-.063-2.415-.444-2.415-2.605M16.08.572h-.763C6.927.572.191 7.309.191 15.127L0 34.192c0 1.462 1.144 2.543 2.606 2.543H8.77c1.462 0 2.606-1.08 2.606-2.542V14.936c.381-1.462 2.605-3.305 4.449-3.305 1.652 0 3.75 1.843 4.322 3.305v19.067c0 1.462 1.143 2.542 2.415 2.542h6.355c1.335 0 2.416-1.08 2.416-2.542l.19-18.559C31.588 7.436 24.66.572 16.08.572m154.379 4.195-1.334-1.462c-1.462-1.08-3.178-2.352-8.39-3.241-1.652-.191-4.449.19-5.974.572-1.843.572-3.369 1.652-3.559 1.652.953.89.381 0 2.987 2.542 1.462 1.843 2.224 3.623 2.796 5.784 2.606-.19 4.449.572 5.021 4.004v19.258c0 1.462 1.271 2.542 2.606 2.542h6.737c1.335 0 2.415-1.08 2.415-2.542l.191-19.449c.063-1.525.191-5.847-3.496-9.66m18.05-3.623h-6.737c-1.334 0-2.415 1.08-2.415 2.542v30.126c0 1.462 1.144 2.543 2.415 2.543h6.737c1.335 0 2.415-1.081 2.415-2.543V3.686c0-1.462-1.08-2.542-2.415-2.542m37.117 0h-6.737c-1.271 0-2.415 1.08-2.415 2.542v17.987c0 .19 0 1.08-.19 2.733 0 2.351-2.416 2.733-2.416 2.733v10.169h3.56c1.461-.19 3.559-.7 5.402-1.843 1.652-1.08 3.178-2.733 4.258-4.513.763-1.271.954-2.352 1.144-3.813V3.686c0-1.462-1.144-2.542-2.606-2.542m-17.35 23.58V3.814c0-1.272-1.145-2.352-2.606-2.352h-6.547c-1.525 0-2.605 1.08-2.605 2.351v23.643c.19 1.462.381 2.543 1.144 3.623 1.144 1.843 2.605 3.623 4.258 4.513 1.843 1.27 3.94 1.843 5.402 1.843h3.559v-10.17s-2.415-.38-2.605-2.541M139.507 0l-.763.19c-8.58 0-15.253 6.738-15.253 14.555v19.067c0 1.462 1.144 2.543 2.606 2.543h6.165c1.461 0 2.605-1.081 2.605-2.543l-.19-18.876.19-.381c.382-1.462 2.606-3.242 4.259-3.242 1.652 0 3.94 1.653 4.258 3.242l.191.19-.191 18.877c0 1.461 1.144 2.542 2.606 2.542h6.165c1.525 0 2.606-1.08 2.606-2.543V14.936C154.761 7.118 148.087 0 139.507 0"/>
</symbol>


</svg>
